<mxfile host="app.diagrams.net" modified="2021-09-06T02:12:19.342Z" agent="5.0 (Macintosh; Intel Mac OS X 10_14_6) AppleWebKit/537.36 (KHTML, like Gecko) Chrome/92.0.4515.159 Safari/537.36" etag="-fl8geu8vDC2G3VodSYd" version="15.0.3" type="github">
  <diagram id="prtHgNgQTEPvFCAcTncT" name="Page-1">
    <mxGraphModel dx="1395" dy="864" grid="1" gridSize="10" guides="1" tooltips="1" connect="1" arrows="1" fold="1" page="1" pageScale="1" pageWidth="827" pageHeight="1169" math="0" shadow="0">
      <root>
        <mxCell id="0" />
        <mxCell id="1" parent="0" />
        <mxCell id="dNxyNK7c78bLwvsdeMH5-19" value="点播视频播放排查" style="swimlane;html=1;childLayout=stackLayout;resizeParent=1;resizeParentMax=0;horizontal=0;startSize=20;horizontalStack=0;" parent="1" vertex="1">
          <mxGeometry x="120" y="120" width="550" height="750" as="geometry" />
        </mxCell>
        <mxCell id="dNxyNK7c78bLwvsdeMH5-20" value="自定义地图" style="swimlane;html=1;startSize=20;horizontal=0;" parent="dNxyNK7c78bLwvsdeMH5-19" vertex="1">
          <mxGeometry x="20" width="530" height="100" as="geometry" />
        </mxCell>
        <mxCell id="dNxyNK7c78bLwvsdeMH5-23" value="点击地图散点" style="ellipse;whiteSpace=wrap;html=1;" parent="dNxyNK7c78bLwvsdeMH5-20" vertex="1">
          <mxGeometry x="40" y="35" width="50" height="50" as="geometry" />
        </mxCell>
        <mxCell id="dNxyNK7c78bLwvsdeMH5-33" value="" style="edgeStyle=orthogonalEdgeStyle;rounded=0;orthogonalLoop=1;jettySize=auto;html=1;endArrow=classic;endFill=1;" parent="dNxyNK7c78bLwvsdeMH5-20" edge="1">
          <mxGeometry relative="1" as="geometry">
            <mxPoint x="320" y="60" as="sourcePoint" />
            <mxPoint x="360" y="60" as="targetPoint" />
          </mxGeometry>
        </mxCell>
        <mxCell id="F8IMX9KvCfwSF9t3Y9Og-16" value="否" style="edgeStyle=orthogonalEdgeStyle;rounded=0;orthogonalLoop=1;jettySize=auto;html=1;" edge="1" parent="dNxyNK7c78bLwvsdeMH5-20" source="F8IMX9KvCfwSF9t3Y9Og-14" target="F8IMX9KvCfwSF9t3Y9Og-15">
          <mxGeometry relative="1" as="geometry" />
        </mxCell>
        <mxCell id="F8IMX9KvCfwSF9t3Y9Og-14" value="播放参数&lt;br&gt;传递给&lt;br&gt;莫奈" style="rhombus;whiteSpace=wrap;html=1;fillColor=#fff2cc;strokeColor=#d6b656;" vertex="1" parent="dNxyNK7c78bLwvsdeMH5-20">
          <mxGeometry x="120" y="20" width="80" height="80" as="geometry" />
        </mxCell>
        <mxCell id="dNxyNK7c78bLwvsdeMH5-25" value="" style="edgeStyle=orthogonalEdgeStyle;rounded=0;orthogonalLoop=1;jettySize=auto;html=1;" parent="dNxyNK7c78bLwvsdeMH5-20" source="dNxyNK7c78bLwvsdeMH5-23" target="F8IMX9KvCfwSF9t3Y9Og-14" edge="1">
          <mxGeometry relative="1" as="geometry">
            <mxPoint x="120" y="60" as="targetPoint" />
          </mxGeometry>
        </mxCell>
        <mxCell id="F8IMX9KvCfwSF9t3Y9Og-15" value="地图自定义组件、莫奈排查&lt;br&gt;王鹏宇、刘保鹏&lt;br&gt;" style="whiteSpace=wrap;html=1;fillColor=#dae8fc;strokeColor=#6c8ebf;" vertex="1" parent="dNxyNK7c78bLwvsdeMH5-20">
          <mxGeometry x="240" y="30" width="120" height="60" as="geometry" />
        </mxCell>
        <mxCell id="F8IMX9KvCfwSF9t3Y9Og-1" value="莫奈平台" style="swimlane;html=1;startSize=20;horizontal=0;" vertex="1" parent="dNxyNK7c78bLwvsdeMH5-19">
          <mxGeometry x="20" y="100" width="530" height="160" as="geometry" />
        </mxCell>
        <mxCell id="F8IMX9KvCfwSF9t3Y9Og-2" value="" style="edgeStyle=orthogonalEdgeStyle;rounded=0;orthogonalLoop=1;jettySize=auto;html=1;endArrow=classic;endFill=1;exitX=1;exitY=0.5;exitDx=0;exitDy=0;" edge="1" parent="F8IMX9KvCfwSF9t3Y9Og-1" source="F8IMX9KvCfwSF9t3Y9Og-18" target="F8IMX9KvCfwSF9t3Y9Og-4">
          <mxGeometry relative="1" as="geometry">
            <mxPoint x="200" y="60" as="sourcePoint" />
          </mxGeometry>
        </mxCell>
        <mxCell id="F8IMX9KvCfwSF9t3Y9Og-33" value="否" style="edgeLabel;html=1;align=center;verticalAlign=middle;resizable=0;points=[];" vertex="1" connectable="0" parent="F8IMX9KvCfwSF9t3Y9Og-2">
          <mxGeometry x="-0.3889" y="1" relative="1" as="geometry">
            <mxPoint as="offset" />
          </mxGeometry>
        </mxCell>
        <mxCell id="F8IMX9KvCfwSF9t3Y9Og-54" value="" style="edgeStyle=orthogonalEdgeStyle;rounded=0;orthogonalLoop=1;jettySize=auto;html=1;" edge="1" parent="F8IMX9KvCfwSF9t3Y9Og-1" source="F8IMX9KvCfwSF9t3Y9Og-4" target="F8IMX9KvCfwSF9t3Y9Og-53">
          <mxGeometry relative="1" as="geometry" />
        </mxCell>
        <mxCell id="F8IMX9KvCfwSF9t3Y9Og-55" value="否" style="edgeLabel;html=1;align=center;verticalAlign=middle;resizable=0;points=[];" vertex="1" connectable="0" parent="F8IMX9KvCfwSF9t3Y9Og-54">
          <mxGeometry x="-0.2444" y="-2" relative="1" as="geometry">
            <mxPoint as="offset" />
          </mxGeometry>
        </mxCell>
        <mxCell id="F8IMX9KvCfwSF9t3Y9Og-4" value="cs播放器接口参数是否正确配置" style="rhombus;whiteSpace=wrap;html=1;fontFamily=Helvetica;fontSize=12;align=center;fillColor=#fff2cc;strokeColor=#d6b656;" vertex="1" parent="F8IMX9KvCfwSF9t3Y9Og-1">
          <mxGeometry x="260" y="35" width="80" height="80" as="geometry" />
        </mxCell>
        <mxCell id="F8IMX9KvCfwSF9t3Y9Og-18" value="根据视频&lt;br&gt;播放参数&lt;br&gt;请求api" style="rhombus;whiteSpace=wrap;html=1;fillColor=#fff2cc;strokeColor=#d6b656;" vertex="1" parent="F8IMX9KvCfwSF9t3Y9Og-1">
          <mxGeometry x="120" y="35" width="80" height="80" as="geometry" />
        </mxCell>
        <mxCell id="F8IMX9KvCfwSF9t3Y9Og-53" value="大屏配置人员&lt;br&gt;修改" style="whiteSpace=wrap;html=1;strokeColor=#9673a6;fillColor=#e1d5e7;" vertex="1" parent="F8IMX9KvCfwSF9t3Y9Og-1">
          <mxGeometry x="380" y="45" width="120" height="60" as="geometry" />
        </mxCell>
        <mxCell id="F8IMX9KvCfwSF9t3Y9Og-9" value="api接口" style="swimlane;html=1;startSize=20;horizontal=0;" vertex="1" parent="dNxyNK7c78bLwvsdeMH5-19">
          <mxGeometry x="20" y="260" width="530" height="120" as="geometry" />
        </mxCell>
        <mxCell id="F8IMX9KvCfwSF9t3Y9Og-10" value="" style="edgeStyle=orthogonalEdgeStyle;rounded=0;orthogonalLoop=1;jettySize=auto;html=1;endArrow=classic;endFill=1;entryX=0;entryY=0.5;entryDx=0;entryDy=0;" edge="1" parent="F8IMX9KvCfwSF9t3Y9Og-9" target="F8IMX9KvCfwSF9t3Y9Og-48">
          <mxGeometry relative="1" as="geometry">
            <mxPoint x="200" y="60" as="sourcePoint" />
            <mxPoint x="260" y="60" as="targetPoint" />
          </mxGeometry>
        </mxCell>
        <mxCell id="F8IMX9KvCfwSF9t3Y9Og-47" value="否" style="edgeLabel;html=1;align=center;verticalAlign=middle;resizable=0;points=[];" vertex="1" connectable="0" parent="F8IMX9KvCfwSF9t3Y9Og-10">
          <mxGeometry x="-0.4365" relative="1" as="geometry">
            <mxPoint as="offset" />
          </mxGeometry>
        </mxCell>
        <mxCell id="F8IMX9KvCfwSF9t3Y9Og-25" value="获取cs&lt;br&gt;播放器参数" style="rhombus;whiteSpace=wrap;html=1;fillColor=#fff2cc;strokeColor=#d6b656;" vertex="1" parent="F8IMX9KvCfwSF9t3Y9Og-9">
          <mxGeometry x="120" y="20" width="80" height="80" as="geometry" />
        </mxCell>
        <mxCell id="F8IMX9KvCfwSF9t3Y9Og-48" value="api接口、星眸平台&lt;br&gt;排查&lt;br&gt;刘勇、张召勇" style="whiteSpace=wrap;html=1;strokeColor=#6c8ebf;fillColor=#dae8fc;" vertex="1" parent="F8IMX9KvCfwSF9t3Y9Og-9">
          <mxGeometry x="240" y="30" width="120" height="60" as="geometry" />
        </mxCell>
        <mxCell id="F8IMX9KvCfwSF9t3Y9Og-20" value="播放控制" style="swimlane;html=1;startSize=20;horizontal=0;" vertex="1" parent="dNxyNK7c78bLwvsdeMH5-19">
          <mxGeometry x="20" y="380" width="530" height="200" as="geometry" />
        </mxCell>
        <mxCell id="F8IMX9KvCfwSF9t3Y9Og-21" value="" style="edgeStyle=orthogonalEdgeStyle;rounded=0;orthogonalLoop=1;jettySize=auto;html=1;endArrow=classic;endFill=1;" edge="1" parent="F8IMX9KvCfwSF9t3Y9Og-20">
          <mxGeometry relative="1" as="geometry">
            <mxPoint x="200" y="60" as="sourcePoint" />
            <mxPoint x="260" y="60" as="targetPoint" />
          </mxGeometry>
        </mxCell>
        <mxCell id="F8IMX9KvCfwSF9t3Y9Og-27" value="正确发送scoket" style="rhombus;whiteSpace=wrap;html=1;fillColor=#fff2cc;strokeColor=#d6b656;" vertex="1" parent="F8IMX9KvCfwSF9t3Y9Og-20">
          <mxGeometry x="120" y="20" width="80" height="80" as="geometry" />
        </mxCell>
        <mxCell id="F8IMX9KvCfwSF9t3Y9Og-64" value="是" style="edgeStyle=orthogonalEdgeStyle;rounded=0;orthogonalLoop=1;jettySize=auto;html=1;" edge="1" parent="F8IMX9KvCfwSF9t3Y9Og-20" source="F8IMX9KvCfwSF9t3Y9Og-50" target="F8IMX9KvCfwSF9t3Y9Og-60">
          <mxGeometry relative="1" as="geometry" />
        </mxCell>
        <mxCell id="F8IMX9KvCfwSF9t3Y9Og-50" value="正确配置&lt;br&gt;过滤器" style="rhombus;whiteSpace=wrap;html=1;fillColor=#fff2cc;strokeColor=#d6b656;" vertex="1" parent="F8IMX9KvCfwSF9t3Y9Og-20">
          <mxGeometry x="260" y="20" width="80" height="80" as="geometry" />
        </mxCell>
        <mxCell id="F8IMX9KvCfwSF9t3Y9Og-60" value="播放器控制排查&lt;br&gt;张召勇" style="rounded=0;whiteSpace=wrap;html=1;fillColor=#dae8fc;strokeColor=#6c8ebf;" vertex="1" parent="F8IMX9KvCfwSF9t3Y9Og-20">
          <mxGeometry x="240" y="130" width="120" height="60" as="geometry" />
        </mxCell>
        <mxCell id="dNxyNK7c78bLwvsdeMH5-21" value="cs播放器" style="swimlane;html=1;startSize=20;horizontal=0;" parent="dNxyNK7c78bLwvsdeMH5-19" vertex="1">
          <mxGeometry x="20" y="580" width="530" height="170" as="geometry" />
        </mxCell>
        <mxCell id="F8IMX9KvCfwSF9t3Y9Og-65" value="否" style="edgeStyle=orthogonalEdgeStyle;rounded=0;orthogonalLoop=1;jettySize=auto;html=1;" edge="1" parent="dNxyNK7c78bLwvsdeMH5-21" source="F8IMX9KvCfwSF9t3Y9Og-29" target="F8IMX9KvCfwSF9t3Y9Og-62">
          <mxGeometry relative="1" as="geometry" />
        </mxCell>
        <mxCell id="F8IMX9KvCfwSF9t3Y9Og-29" value="视频正&lt;br&gt;常播放" style="rhombus;whiteSpace=wrap;html=1;fillColor=#fff2cc;strokeColor=#d6b656;" vertex="1" parent="dNxyNK7c78bLwvsdeMH5-21">
          <mxGeometry x="120" y="40" width="80" height="80" as="geometry" />
        </mxCell>
        <mxCell id="F8IMX9KvCfwSF9t3Y9Og-62" value="海康平台、星眸平台排查&lt;br&gt;王国义、孔瑞龙" style="rounded=0;whiteSpace=wrap;html=1;fillColor=#dae8fc;strokeColor=#6c8ebf;" vertex="1" parent="dNxyNK7c78bLwvsdeMH5-21">
          <mxGeometry x="240" y="50" width="120" height="60" as="geometry" />
        </mxCell>
        <mxCell id="F8IMX9KvCfwSF9t3Y9Og-17" value="是" style="edgeStyle=orthogonalEdgeStyle;rounded=0;orthogonalLoop=1;jettySize=auto;html=1;entryX=0.5;entryY=0;entryDx=0;entryDy=0;" edge="1" parent="dNxyNK7c78bLwvsdeMH5-19" source="F8IMX9KvCfwSF9t3Y9Og-14" target="F8IMX9KvCfwSF9t3Y9Og-18">
          <mxGeometry relative="1" as="geometry">
            <mxPoint x="180" y="120" as="targetPoint" />
          </mxGeometry>
        </mxCell>
        <mxCell id="F8IMX9KvCfwSF9t3Y9Og-19" value="" style="edgeStyle=orthogonalEdgeStyle;rounded=0;orthogonalLoop=1;jettySize=auto;html=1;entryX=0.5;entryY=0;entryDx=0;entryDy=0;" edge="1" parent="dNxyNK7c78bLwvsdeMH5-19" source="F8IMX9KvCfwSF9t3Y9Og-18" target="F8IMX9KvCfwSF9t3Y9Og-25">
          <mxGeometry relative="1" as="geometry">
            <mxPoint x="180" y="350" as="targetPoint" />
          </mxGeometry>
        </mxCell>
        <mxCell id="F8IMX9KvCfwSF9t3Y9Og-26" value="是" style="edgeLabel;html=1;align=center;verticalAlign=middle;resizable=0;points=[];" vertex="1" connectable="0" parent="F8IMX9KvCfwSF9t3Y9Og-19">
          <mxGeometry x="0.28" y="1" relative="1" as="geometry">
            <mxPoint x="-1" y="-6" as="offset" />
          </mxGeometry>
        </mxCell>
        <mxCell id="F8IMX9KvCfwSF9t3Y9Og-28" value="" style="edgeStyle=orthogonalEdgeStyle;rounded=0;orthogonalLoop=1;jettySize=auto;html=1;" edge="1" parent="dNxyNK7c78bLwvsdeMH5-19" source="F8IMX9KvCfwSF9t3Y9Og-25" target="F8IMX9KvCfwSF9t3Y9Og-27">
          <mxGeometry relative="1" as="geometry" />
        </mxCell>
        <mxCell id="F8IMX9KvCfwSF9t3Y9Og-31" value="是" style="edgeLabel;html=1;align=center;verticalAlign=middle;resizable=0;points=[];" vertex="1" connectable="0" parent="F8IMX9KvCfwSF9t3Y9Og-28">
          <mxGeometry x="-0.2667" y="-3" relative="1" as="geometry">
            <mxPoint as="offset" />
          </mxGeometry>
        </mxCell>
        <mxCell id="F8IMX9KvCfwSF9t3Y9Og-30" value="" style="edgeStyle=orthogonalEdgeStyle;rounded=0;orthogonalLoop=1;jettySize=auto;html=1;" edge="1" parent="dNxyNK7c78bLwvsdeMH5-19" source="F8IMX9KvCfwSF9t3Y9Og-27" target="F8IMX9KvCfwSF9t3Y9Og-29">
          <mxGeometry relative="1" as="geometry" />
        </mxCell>
        <mxCell id="F8IMX9KvCfwSF9t3Y9Og-32" value="是" style="edgeLabel;html=1;align=center;verticalAlign=middle;resizable=0;points=[];" vertex="1" connectable="0" parent="F8IMX9KvCfwSF9t3Y9Og-30">
          <mxGeometry x="-0.1" relative="1" as="geometry">
            <mxPoint as="offset" />
          </mxGeometry>
        </mxCell>
        <mxCell id="F8IMX9KvCfwSF9t3Y9Og-51" value="" style="edgeStyle=orthogonalEdgeStyle;rounded=0;orthogonalLoop=1;jettySize=auto;html=1;" edge="1" parent="dNxyNK7c78bLwvsdeMH5-19" source="F8IMX9KvCfwSF9t3Y9Og-4" target="F8IMX9KvCfwSF9t3Y9Og-15">
          <mxGeometry relative="1" as="geometry" />
        </mxCell>
        <mxCell id="F8IMX9KvCfwSF9t3Y9Og-52" value="是" style="edgeLabel;html=1;align=center;verticalAlign=middle;resizable=0;points=[];" vertex="1" connectable="0" parent="F8IMX9KvCfwSF9t3Y9Og-51">
          <mxGeometry x="-0.4533" relative="1" as="geometry">
            <mxPoint as="offset" />
          </mxGeometry>
        </mxCell>
        <mxCell id="F8IMX9KvCfwSF9t3Y9Og-56" value="否" style="edgeStyle=orthogonalEdgeStyle;rounded=0;orthogonalLoop=1;jettySize=auto;html=1;" edge="1" parent="dNxyNK7c78bLwvsdeMH5-19" source="F8IMX9KvCfwSF9t3Y9Og-50" target="F8IMX9KvCfwSF9t3Y9Og-53">
          <mxGeometry relative="1" as="geometry" />
        </mxCell>
      </root>
    </mxGraphModel>
  </diagram>
</mxfile>
